# xmcd
#
# Track frame offsets: 
#        150
#        30522
#        53022
#        73547
#        97039
#        116775
#        145023
#        166467
#        193498
#        213877
#
# Disc length: 3200 seconds
#
# Revision: 0
# Processed by: cddbd v1.5.2PL0 Copyright (c) Steve Scherf et al.
# Submitted via: ExactAudioCopy v0.99pb5
#
DISCID=900c7e0a
DTITLE=Van Khanh - Hoai Niem Truong Giang
DYEAR=2004
DGENRE=VNVocal
TTITLE0=Nho Quang Nam
TTITLE1=Bai Ca Dung Dat
TTITLE2=Thu Hat Cho Nguoi
TTITLE3=Hoai Niem Truong Giang
TTITLE4=Doi Mat
TTITLE5=Tro Lai Pho Hoai
TTITLE6=Bai Tho Que Lua
TTITLE7=Duong Ve
TTITLE8=Ly Vong Phu
TTITLE9=Bai Tho Hoa Cuc
EXTD=
EXTT0=
EXTT1=
EXTT2=
EXTT3=
EXTT4=
EXTT5=
EXTT6=
EXTT7=
EXTT8=
EXTT9=
PLAYORDER=
